<svg id="Layer_1" data-name="Layer 1" xmlns="http://www.w3.org/2000/svg" viewBox="0 0 281.84 48.66"><defs><style>.cls-1{fill:#86c440;}.cls-2{fill:#70ab47;}</style></defs><title>monkey-barrel-logo</title><g id="_0Nd6oc.tif" data-name="0Nd6oc.tif"><path class="cls-1" d="M19.72,2.36a7,7,0,0,1-1.19.53,10.68,10.68,0,0,1-2.09.32,3.78,3.78,0,0,0-3.26,1.54c-.1.14-.26.34-.41.35-1.49.2-2.2,1.49-3.23,2.31a1.41,1.41,0,0,0-.42.69,7.27,7.27,0,0,0,3.06,8,11.29,11.29,0,0,0,5.27,2c3.24.29,6.49.47,10,.71a24.71,24.71,0,0,0-1.17-3.25,3.58,3.58,0,0,1,0-3.82,1.64,1.64,0,0,1,1.33-.8,2.57,2.57,0,0,0,1.45-.68,5.89,5.89,0,0,1,7-.92c1.69.84,3.3,1.84,3.93,3.78a6.22,6.22,0,0,0,1.27,2.76c.25.25.16,1,0,1.46a4.55,4.55,0,0,1-2.67,3,6.58,6.58,0,0,0,4.23.17,18.82,18.82,0,0,1,7.2-.56c4.86.71,8.74,3,11.24,7.28a11,11,0,0,1,1.57,6.07c-.14,3.07-1.47,5.44-4.44,6.47-2.35.81-4.83,1.28-7.3,1.92a2.28,2.28,0,0,1,1.75-2.63,3.81,3.81,0,0,0,2.61-2.5,2.85,2.85,0,0,1,1.87-1.77c2-.68,2.47-1.81,1.71-3.84a6.7,6.7,0,0,0-6.44-4.65c-2.22-.11-4.46.15-6.69.23a46.59,46.59,0,0,1-4.87.13,6,6,0,0,0-5.59,4.12,10.24,10.24,0,0,1-2.75,5.12,5,5,0,0,1-1.3,1,2.57,2.57,0,0,0-1.4,1.9,40.85,40.85,0,0,1-1.74,4.83c-1.07,2.35-2.26,2.9-4.79,2.51l-1-.13a22.55,22.55,0,0,1-1.26,3c-.69,1.15-1.09,1.06-2.05.14s-1.15-1.45-.46-2.54c.25-.39,0-1.15-.12-1.72A7.31,7.31,0,0,0,18,43.77,1.77,1.77,0,0,1,19.56,41a10.46,10.46,0,0,1,2.55.17c1.23.2,1.3.18,1.68-1a8.27,8.27,0,0,0,.62-1.72A2.38,2.38,0,0,0,24,36.79c-1-1.08-2.19-2-3.33-3-.55-.48-1.07-.32-1.5.24-.71.92-1.41,1.85-2.13,2.76s-1.19,1-2.1.29a5.92,5.92,0,0,0-4.34-1.44,1.16,1.16,0,0,1-.81-.45c-.26-.34-.32-.86-.61-1.16a3.92,3.92,0,0,0-1.12-.56c.57-1.31,2.73-1.86,4.23-1.14l.4.23c1.12.63,1.44.55,2-.59.67-1.35,1.31-2.71,2-4.06.84-1.71,1.77-2.12,3.58-1.64.74.2,1.48.41,2.23.59,1,.25,1.49,0,1.63-.76.19-1-.57-1-1.2-1.07-1.5-.06-3,0-4.5-.09-4.1-.32-7.36-2.36-10.18-5.2A12,12,0,0,1,5,15.07a7.55,7.55,0,0,1,.07-5.32c.78-2,1.72-3.86,2.68-5.74a4.93,4.93,0,0,1,3.92-2.59,20.78,20.78,0,0,1,6.86.13A6.27,6.27,0,0,1,19.72,2Z" transform="translate(-4.59 -1.19)"/></g><path class="cls-2" d="M88.14,16.27l.32,4.61A10,10,0,0,0,81,17.7c-6.41,0-12.62,6-12.62,16s4.89,15.93,12.45,15.93a12.06,12.06,0,0,0,8.09-3.75h.22l.65,3h7.35V5.91h-9Zm0,23.22a5.78,5.78,0,0,1-5,2.72c-3.49,0-5.55-2.68-5.55-8.65,0-5.79,2.56-8.48,5.48-8.48a7.39,7.39,0,0,1,5,1.92Z" transform="translate(-4.59 -1.19)"/><path class="cls-2" d="M116.27,17.7a24.86,24.86,0,0,0-13,4l3.21,5.91c3-1.67,5.49-2.74,8-2.74,3.31,0,4.63,1.73,4.81,4.39-12,1.27-17.13,4.74-17.13,11.15,0,5.12,3.52,9.17,9.07,9.17,3.42,0,6.29-1.6,8.85-3.85h.22l.65,3.11h7.35V31.47C128.35,22.15,124.05,17.7,116.27,17.7ZM119.34,40c-1.6,1.59-3,2.6-5,2.6s-3.49-1-3.49-2.92c0-2.3,2.1-4.13,8.5-5Z" transform="translate(-4.59 -1.19)"/><path class="cls-2" d="M142.69,23.75h-.23l-.64-5.31h-7.36V48.85h9V31.23c1.62-4.15,4.4-5.63,6.69-5.63a12.77,12.77,0,0,1,3.29.49l1.5-7.77a8.43,8.43,0,0,0-3.63-.62C148.23,17.7,144.9,19.69,142.69,23.75Z" transform="translate(-4.59 -1.19)"/><path class="cls-2" d="M170,17.7c-7.31,0-14.35,6.09-14.35,16,0,10.07,6.72,15.93,15.39,15.93a19.8,19.8,0,0,0,10.79-3.43l-3-5.43a12.72,12.72,0,0,1-6.58,2c-4.06,0-7.08-2-7.89-6.44h18.2a20.65,20.65,0,0,0,.37-4C182.94,24,178.65,17.7,170,17.7Zm-5.72,12.62c.61-3.84,3.07-5.75,5.92-5.75,3.6,0,5.05,2.41,5.05,5.75Z" transform="translate(-4.59 -1.19)"/><path class="cls-2" d="M201.7,12.24a8.72,8.72,0,0,1,3.15.66l1.63-6.65a17.66,17.66,0,0,0-6.07-1.08c-8.21,0-11.19,5.27-11.19,11.69v1.62l-4,.31v6.72h4V48.85h9V25.51h5.47V18.44h-5.47V16.6C198.24,13.45,199.51,12.24,201.7,12.24Z" transform="translate(-4.59 -1.19)"/><path class="cls-2" d="M219.76,17.7a24.83,24.83,0,0,0-13,4l3.2,5.91c2.95-1.67,5.5-2.74,8.05-2.74,3.3,0,4.63,1.73,4.81,4.39-12,1.27-17.13,4.74-17.13,11.15,0,5.12,3.52,9.17,9.07,9.17,3.41,0,6.28-1.6,8.84-3.85h.23l.65,3.11h7.35V31.47C231.84,22.15,227.53,17.7,219.76,17.7ZM222.83,40c-1.6,1.59-3,2.6-5,2.6s-3.49-1-3.49-2.92c0-2.3,2.09-4.13,8.5-5Z" transform="translate(-4.59 -1.19)"/><path class="cls-2" d="M246.17,23.75H246l-.65-5.31H238V48.85h9V31.23c1.62-4.15,4.4-5.63,6.7-5.63a12.69,12.69,0,0,1,3.28.49l1.5-7.77a8.43,8.43,0,0,0-3.63-.62C251.71,17.7,248.39,19.69,246.17,23.75Z" transform="translate(-4.59 -1.19)"/><path class="cls-2" d="M286.43,32.3c0-8.3-4.29-14.6-13-14.6-7.3,0-14.34,6.09-14.34,16,0,10.07,6.71,15.93,15.38,15.93a19.75,19.75,0,0,0,10.79-3.43l-3-5.43a12.69,12.69,0,0,1-6.58,2c-4.05,0-7.07-2-7.88-6.44h18.19A20.48,20.48,0,0,0,286.43,32.3Zm-18.67-2c.61-3.84,3.07-5.75,5.91-5.75,3.6,0,5.06,2.41,5.06,5.75Z" transform="translate(-4.59 -1.19)"/></svg>